<svg version="1.1" xmlns="http://www.w3.org/2000/svg" xmlns:xlink="http://www.w3.org/1999/xlink" width="694.47900390625" height="749"><defs/><g><g transform="translate(-350,-150) scale(1,1)"><rect fill="#C0C0C0" stroke="none" x="527" y="167" width="118.50341796875" height="175" opacity="0.2"/></g><g transform="translate(-350,-150) scale(1,1)"><rect fill="#ffffff" stroke="none" x="520" y="160" width="118.50341796875" height="175"/></g><g transform="translate(-350,-150) scale(1,1)"><path fill="none" stroke="#000000" d="M 520 160 L 638.50341796875 160 L 638.50341796875 335 L 520 335 L 520 160 Z Z" stroke-miterlimit="10"/></g><g transform="translate(-350,-150) scale(1,1)"><path fill="none" stroke="#000000" d="M 520 185 L 638.50341796875 185" stroke-miterlimit="10"/></g><g transform="translate(-350,-150) scale(1,1)"><path fill="none" stroke="#000000" d="M 520 298 L 638.50341796875 298" stroke-miterlimit="10"/></g><g transform="translate(-350,-150) scale(1,1)"><g><path fill="none" stroke="none"/><text fill="#000000" stroke="none" font-family="Arial" font-size="13px" font-style="normal" font-weight="bold" text-decoration="none" x="565.528076171875" y="179.5">User</text></g></g><g transform="translate(-350,-150) scale(1,1)"><g><path fill="none" stroke="none"/><text fill="#000000" stroke="none" font-family="Arial" font-size="13px" font-style="normal" font-weight="normal" text-decoration="none" x="525" y="202.5">-Username: String</text></g></g><g transform="translate(-350,-150) scale(1,1)"><g><path fill="none" stroke="none"/><text fill="#000000" stroke="none" font-family="Arial" font-size="13px" font-style="normal" font-weight="normal" text-decoration="none" x="525" y="217.5">-Password: String</text></g></g><g transform="translate(-350,-150) scale(1,1)"><g><path fill="none" stroke="none"/><text fill="#000000" stroke="none" font-family="Arial" font-size="13px" font-style="normal" font-weight="normal" text-decoration="none" x="525" y="232.5">-Email</text></g></g><g transform="translate(-350,-150) scale(1,1)"><g><path fill="none" stroke="none"/><text fill="#000000" stroke="none" font-family="Arial" font-size="13px" font-style="normal" font-weight="normal" text-decoration="none" x="525" y="247.5">-LastActivity</text></g></g><g transform="translate(-350,-150) scale(1,1)"><g><path fill="none" stroke="none"/><text fill="#000000" stroke="none" font-family="Arial" font-size="13px" font-style="normal" font-weight="normal" text-decoration="none" x="525" y="262.5">-PostalAdress</text></g></g><g transform="translate(-350,-150) scale(1,1)"><g><path fill="none" stroke="none"/><text fill="#000000" stroke="none" font-family="Arial" font-size="13px" font-style="normal" font-weight="normal" text-decoration="none" x="525" y="277.5">-Name</text></g></g><g transform="translate(-350,-150) scale(1,1)"><g><path fill="none" stroke="none"/><text fill="#000000" stroke="none" font-family="Arial" font-size="13px" font-style="normal" font-weight="normal" text-decoration="none" x="525" y="292.5">-LoggedIn</text></g></g><g transform="translate(-350,-150) scale(1,1)"><g><path fill="none" stroke="none"/><text fill="#000000" stroke="none" font-family="Arial" font-size="13px" font-style="normal" font-weight="normal" text-decoration="none" x="525" y="315.5">+Login(): boolean</text></g></g><g transform="translate(-350,-150) scale(1,1)"><g><path fill="none" stroke="none"/><text fill="#000000" stroke="none" font-family="Arial" font-size="13px" font-style="normal" font-weight="normal" text-decoration="none" x="525" y="330.5">+Logout(): boolean</text></g></g><g transform="translate(-350,-150) scale(1,1)"><rect fill="#C0C0C0" stroke="none" x="703" y="271" width="127.87255859375" height="57" opacity="0.2"/></g><g transform="translate(-350,-150) scale(1,1)"><rect fill="#ffffff" stroke="none" x="696" y="264" width="127.87255859375" height="57"/></g><g transform="translate(-350,-150) scale(1,1)"><path fill="none" stroke="#000000" d="M 696 264 L 823.87255859375 264 L 823.87255859375 321 L 696 321 L 696 264 Z Z" stroke-miterlimit="10"/></g><g transform="translate(-350,-150) scale(1,1)"><path fill="none" stroke="#000000" d="M 696 289 L 823.87255859375 289" stroke-miterlimit="10"/></g><g transform="translate(-350,-150) scale(1,1)"><path fill="none" stroke="#000000" d="M 696 312 L 823.87255859375 312" stroke-miterlimit="10"/></g><g transform="translate(-350,-150) scale(1,1)"><g><path fill="none" stroke="none"/><text fill="#000000" stroke="none" font-family="Arial" font-size="13px" font-style="normal" font-weight="bold" text-decoration="none" x="731.76220703125" y="283.5">Customer</text></g></g><g transform="translate(-350,-150) scale(1,1)"><g><path fill="none" stroke="none"/><text fill="#000000" stroke="none" font-family="Arial" font-size="13px" font-style="normal" font-weight="normal" text-decoration="none" x="701" y="306.5">-IsMember: boolean</text></g></g><g transform="translate(-350,-150) scale(1,1)"><rect fill="#C0C0C0" stroke="none" x="367" y="287" width="104" height="44" opacity="0.2"/></g><g transform="translate(-350,-150) scale(1,1)"><rect fill="#ffffff" stroke="none" x="360" y="280" width="104" height="44"/></g><g transform="translate(-350,-150) scale(1,1)"><path fill="none" stroke="#000000" d="M 360 280 L 464 280 L 464 324 L 360 324 L 360 280 Z Z" stroke-miterlimit="10"/></g><g transform="translate(-350,-150) scale(1,1)"><path fill="none" stroke="#000000" d="M 360 305 L 464 305" stroke-miterlimit="10"/></g><g transform="translate(-350,-150) scale(1,1)"><path fill="none" stroke="#000000" d="M 360 315 L 464 315" stroke-miterlimit="10"/></g><g transform="translate(-350,-150) scale(1,1)"><g><path fill="none" stroke="none"/><text fill="#000000" stroke="none" font-family="Arial" font-size="13px" font-style="normal" font-weight="bold" text-decoration="none" x="386.345947265625" y="299.5">Manager</text></g></g><g transform="translate(-350,-150) scale(1,1)"><rect fill="#C0C0C0" stroke="none" x="455" y="423" width="158.9443359375" height="102" opacity="0.2"/></g><g transform="translate(-350,-150) scale(1,1)"><rect fill="#ffffff" stroke="none" x="448" y="416" width="158.9443359375" height="102"/></g><g transform="translate(-350,-150) scale(1,1)"><path fill="none" stroke="#000000" d="M 448 416 L 606.9443359375 416 L 606.9443359375 518 L 448 518 L 448 416 Z Z" stroke-miterlimit="10"/></g><g transform="translate(-350,-150) scale(1,1)"><path fill="none" stroke="#000000" d="M 448 441 L 606.9443359375 441" stroke-miterlimit="10"/></g><g transform="translate(-350,-150) scale(1,1)"><path fill="none" stroke="#000000" d="M 448 451 L 606.9443359375 451" stroke-miterlimit="10"/></g><g transform="translate(-350,-150) scale(1,1)"><g><path fill="none" stroke="none"/><text fill="#000000" stroke="none" font-family="Arial" font-size="13px" font-style="normal" font-weight="bold" text-decoration="none" x="500.73583984375" y="435.5">Inventory</text></g></g><g transform="translate(-350,-150) scale(1,1)"><g><path fill="none" stroke="none"/><text fill="#000000" stroke="none" font-family="Arial" font-size="13px" font-style="normal" font-weight="normal" text-decoration="none" x="453" y="468.5">+PurchaseItem(): boolean</text></g></g><g transform="translate(-350,-150) scale(1,1)"><g><path fill="none" stroke="none"/><text fill="#000000" stroke="none" font-family="Arial" font-size="13px" font-style="normal" font-weight="normal" text-decoration="none" x="453" y="483.5">+AddItem(): void</text></g></g><g transform="translate(-350,-150) scale(1,1)"><g><path fill="none" stroke="none"/><text fill="#000000" stroke="none" font-family="Arial" font-size="13px" font-style="normal" font-weight="normal" text-decoration="none" x="453" y="498.5">+Reorder(): void</text></g></g><g transform="translate(-350,-150) scale(1,1)"><g><path fill="none" stroke="none"/><text fill="#000000" stroke="none" font-family="Arial" font-size="13px" font-style="normal" font-weight="normal" text-decoration="none" x="453" y="513.5">+Email(): void</text></g></g><g transform="translate(-350,-150) scale(1,1)"><rect fill="#C0C0C0" stroke="none" x="743" y="407" width="166.92333984375" height="130" opacity="0.2"/></g><g transform="translate(-350,-150) scale(1,1)"><rect fill="#ffffff" stroke="none" x="736" y="400" width="166.92333984375" height="130"/></g><g transform="translate(-350,-150) scale(1,1)"><path fill="none" stroke="#000000" d="M 736 400 L 902.92333984375 400 L 902.92333984375 530 L 736 530 L 736 400 Z Z" stroke-miterlimit="10"/></g><g transform="translate(-350,-150) scale(1,1)"><path fill="none" stroke="#000000" d="M 736 425 L 902.92333984375 425" stroke-miterlimit="10"/></g><g transform="translate(-350,-150) scale(1,1)"><path fill="none" stroke="#000000" d="M 736 448 L 902.92333984375 448" stroke-miterlimit="10"/></g><g transform="translate(-350,-150) scale(1,1)"><g><path fill="none" stroke="none"/><text fill="#000000" stroke="none" font-family="Arial" font-size="13px" font-style="normal" font-weight="bold" text-decoration="none" x="777.90673828125" y="419.5">Shopping Cart</text></g></g><g transform="translate(-350,-150) scale(1,1)"><g><path fill="none" stroke="none"/><text fill="#000000" stroke="none" font-family="Arial" font-size="13px" font-style="normal" font-weight="normal" text-decoration="none" x="741" y="442.5">-PromotionAdded: boolean</text></g></g><g transform="translate(-350,-150) scale(1,1)"><g><path fill="none" stroke="none"/><text fill="#000000" stroke="none" font-family="Arial" font-size="13px" font-style="normal" font-weight="normal" text-decoration="none" x="741" y="465.5">+AddPromotion(): boolean</text></g></g><g transform="translate(-350,-150) scale(1,1)"><g><path fill="none" stroke="none"/><text fill="#000000" stroke="none" font-family="Arial" font-size="13px" font-style="normal" font-weight="normal" text-decoration="none" x="741" y="480.5">+Checkout(): void</text></g></g><g transform="translate(-350,-150) scale(1,1)"><g><path fill="none" stroke="none"/><text fill="#000000" stroke="none" font-family="Arial" font-size="13px" font-style="normal" font-weight="normal" text-decoration="none" x="741" y="495.5">+AddItem(): void</text></g></g><g transform="translate(-350,-150) scale(1,1)"><g><path fill="none" stroke="none"/><text fill="#000000" stroke="none" font-family="Arial" font-size="13px" font-style="normal" font-weight="normal" text-decoration="none" x="741" y="510.5">+RemoveItem(): void</text></g></g><g transform="translate(-350,-150) scale(1,1)"><g><path fill="none" stroke="none"/><text fill="#000000" stroke="none" font-family="Arial" font-size="13px" font-style="normal" font-weight="normal" text-decoration="none" x="741" y="525.5">+void()</text></g></g><g transform="translate(-350,-150) scale(1,1)"><rect fill="#C0C0C0" stroke="none" x="495" y="583" width="126.05078125" height="117" opacity="0.2"/></g><g transform="translate(-350,-150) scale(1,1)"><rect fill="#ffffff" stroke="none" x="488" y="576" width="126.05078125" height="117"/></g><g transform="translate(-350,-150) scale(1,1)"><path fill="none" stroke="#000000" d="M 488 576 L 614.05078125 576 L 614.05078125 693 L 488 693 L 488 576 Z Z" stroke-miterlimit="10"/></g><g transform="translate(-350,-150) scale(1,1)"><path fill="none" stroke="#000000" d="M 488 601 L 614.05078125 601" stroke-miterlimit="10"/></g><g transform="translate(-350,-150) scale(1,1)"><path fill="none" stroke="#000000" d="M 488 684 L 614.05078125 684" stroke-miterlimit="10"/></g><g transform="translate(-350,-150) scale(1,1)"><g><path fill="none" stroke="none"/><text fill="#000000" stroke="none" font-family="Arial" font-size="13px" font-style="normal" font-weight="bold" text-decoration="none" x="538.384033203125" y="595.5">Item</text></g></g><g transform="translate(-350,-150) scale(1,1)"><g><path fill="none" stroke="none"/><text fill="#000000" stroke="none" font-family="Arial" font-size="13px" font-style="normal" font-weight="normal" text-decoration="none" x="493" y="618.5">-Barcode: int</text></g></g><g transform="translate(-350,-150) scale(1,1)"><g><path fill="none" stroke="none"/><text fill="#000000" stroke="none" font-family="Arial" font-size="13px" font-style="normal" font-weight="normal" text-decoration="none" x="493" y="633.5">-Price: double</text></g></g><g transform="translate(-350,-150) scale(1,1)"><g><path fill="none" stroke="none"/><text fill="#000000" stroke="none" font-family="Arial" font-size="13px" font-style="normal" font-weight="normal" text-decoration="none" x="493" y="648.5">-Reorder: boolean</text></g></g><g transform="translate(-350,-150) scale(1,1)"><g><path fill="none" stroke="none"/><text fill="#000000" stroke="none" font-family="Arial" font-size="13px" font-style="normal" font-weight="normal" text-decoration="none" x="493" y="663.5">-ReorderAmount: int</text></g></g><g transform="translate(-350,-150) scale(1,1)"><g><path fill="none" stroke="none"/><text fill="#000000" stroke="none" font-family="Arial" font-size="13px" font-style="normal" font-weight="normal" text-decoration="none" x="493" y="678.5">-Stock: int</text></g></g><g transform="translate(-350,-150) scale(1,1)"><rect fill="#C0C0C0" stroke="none" x="927" y="567" width="114.47900390625" height="72" opacity="0.2"/></g><g transform="translate(-350,-150) scale(1,1)"><rect fill="#ffffff" stroke="none" x="920" y="560" width="114.47900390625" height="72"/></g><g transform="translate(-350,-150) scale(1,1)"><path fill="none" stroke="#000000" d="M 920 560 L 1034.47900390625 560 L 1034.47900390625 632 L 920 632 L 920 560 Z Z" stroke-miterlimit="10"/></g><g transform="translate(-350,-150) scale(1,1)"><path fill="none" stroke="#000000" d="M 920 585 L 1034.47900390625 585" stroke-miterlimit="10"/></g><g transform="translate(-350,-150) scale(1,1)"><path fill="none" stroke="#000000" d="M 920 623 L 1034.47900390625 623" stroke-miterlimit="10"/></g><g transform="translate(-350,-150) scale(1,1)"><g><path fill="none" stroke="none"/><text fill="#000000" stroke="none" font-family="Arial" font-size="13px" font-style="normal" font-weight="bold" text-decoration="none" x="943.520751953125" y="579.5">Transaction</text></g></g><g transform="translate(-350,-150) scale(1,1)"><g><path fill="none" stroke="none"/><text fill="#000000" stroke="none" font-family="Arial" font-size="13px" font-style="normal" font-weight="normal" text-decoration="none" x="925" y="602.5">-TimeDate: Time</text></g></g><g transform="translate(-350,-150) scale(1,1)"><g><path fill="none" stroke="none"/><text fill="#000000" stroke="none" font-family="Arial" font-size="13px" font-style="normal" font-weight="normal" text-decoration="none" x="925" y="617.5">-Username: String</text></g></g><g transform="translate(-350,-150) scale(1,1)"><rect fill="#C0C0C0" stroke="none" x="511" y="727" width="119.5380859375" height="72" opacity="0.2"/></g><g transform="translate(-350,-150) scale(1,1)"><rect fill="#ffffff" stroke="none" x="504" y="720" width="119.5380859375" height="72"/></g><g transform="translate(-350,-150) scale(1,1)"><path fill="none" stroke="#000000" d="M 504 720 L 623.5380859375 720 L 623.5380859375 792 L 504 792 L 504 720 Z Z" stroke-miterlimit="10"/></g><g transform="translate(-350,-150) scale(1,1)"><path fill="none" stroke="#000000" d="M 504 745 L 623.5380859375 745" stroke-miterlimit="10"/></g><g transform="translate(-350,-150) scale(1,1)"><path fill="none" stroke="#000000" d="M 504 783 L 623.5380859375 783" stroke-miterlimit="10"/></g><g transform="translate(-350,-150) scale(1,1)"><g><path fill="none" stroke="none"/><text fill="#000000" stroke="none" font-family="Arial" font-size="13px" font-style="normal" font-weight="bold" text-decoration="none" x="541.3681640625" y="739.5">Product</text></g></g><g transform="translate(-350,-150) scale(1,1)"><g><path fill="none" stroke="none"/><text fill="#000000" stroke="none" font-family="Arial" font-size="13px" font-style="normal" font-weight="normal" text-decoration="none" x="509" y="762.5">-Name: String</text></g></g><g transform="translate(-350,-150) scale(1,1)"><g><path fill="none" stroke="none"/><text fill="#000000" stroke="none" font-family="Arial" font-size="13px" font-style="normal" font-weight="normal" text-decoration="none" x="509" y="777.5">-Description: String</text></g></g><g transform="translate(-350,-150) scale(1,1)"><rect fill="#C0C0C0" stroke="none" x="895" y="711" width="109.40087890625" height="44" opacity="0.2"/></g><g transform="translate(-350,-150) scale(1,1)"><rect fill="#ffffff" stroke="none" x="888" y="704" width="109.40087890625" height="44"/></g><g transform="translate(-350,-150) scale(1,1)"><path fill="none" stroke="#000000" d="M 888 704 L 997.40087890625 704 L 997.40087890625 748 L 888 748 L 888 704 Z Z" stroke-miterlimit="10"/></g><g transform="translate(-350,-150) scale(1,1)"><path fill="none" stroke="#000000" d="M 888 729 L 997.40087890625 729" stroke-miterlimit="10"/></g><g transform="translate(-350,-150) scale(1,1)"><path fill="none" stroke="#000000" d="M 888 739 L 997.40087890625 739" stroke-miterlimit="10"/></g><g transform="translate(-350,-150) scale(1,1)"><g><path fill="none" stroke="none"/><text fill="#000000" stroke="none" font-family="Arial" font-size="13px" font-style="normal" font-weight="bold" text-decoration="none" x="896.330810546875" y="723.5">Transaction Log</text></g></g><g transform="translate(-350,-150) scale(1,1)"><rect fill="#C0C0C0" stroke="none" x="759" y="767" width="105.82080078125" height="100" opacity="0.2"/></g><g transform="translate(-350,-150) scale(1,1)"><rect fill="#ffffff" stroke="none" x="752" y="760" width="105.82080078125" height="100"/></g><g transform="translate(-350,-150) scale(1,1)"><path fill="none" stroke="#000000" d="M 752 760 L 857.82080078125 760 L 857.82080078125 860 L 752 860 L 752 760 Z Z" stroke-miterlimit="10"/></g><g transform="translate(-350,-150) scale(1,1)"><path fill="none" stroke="#000000" d="M 752 785 L 857.82080078125 785" stroke-miterlimit="10"/></g><g transform="translate(-350,-150) scale(1,1)"><path fill="none" stroke="#000000" d="M 752 838 L 857.82080078125 838" stroke-miterlimit="10"/></g><g transform="translate(-350,-150) scale(1,1)"><g><path fill="none" stroke="none"/><text fill="#000000" stroke="none" font-family="Arial" font-size="13px" font-style="normal" font-weight="bold" text-decoration="none" x="775.285888671875" y="779.5">Promotion</text></g></g><g transform="translate(-350,-150) scale(1,1)"><g><path fill="none" stroke="none"/><text fill="#000000" stroke="none" font-family="Arial" font-size="13px" font-style="normal" font-weight="normal" text-decoration="none" x="757" y="802.5">-Code: String</text></g></g><g transform="translate(-350,-150) scale(1,1)"><g><path fill="none" stroke="none"/><text fill="#000000" stroke="none" font-family="Arial" font-size="13px" font-style="normal" font-weight="normal" text-decoration="none" x="757" y="817.5">-Percentage: int</text></g></g><g transform="translate(-350,-150) scale(1,1)"><g><path fill="none" stroke="none"/><text fill="#000000" stroke="none" font-family="Arial" font-size="13px" font-style="normal" font-weight="normal" text-decoration="none" x="757" y="832.5">-Expiration: Date</text></g></g><g transform="translate(-350,-150) scale(1,1)"><g><path fill="none" stroke="none"/><text fill="#000000" stroke="none" font-family="Arial" font-size="13px" font-style="normal" font-weight="normal" text-decoration="none" x="757" y="855.5">+Email(): void</text></g></g><g transform="translate(-350,-150) scale(1,1)"><path fill="none" stroke="#000000" d="M 575 335 L 575 416" stroke-miterlimit="10"/></g><g transform="translate(-350,-150) scale(1,1)"><path fill="none" stroke="#000000" d="M 570.790482243984 405.83732514237585 L 575 416 L 579.209517756016 405.83732514237585" stroke-miterlimit="10"/></g><g transform="translate(-350,-150) scale(1,1)"><g><path fill="none" stroke="none"/><text fill="#000000" stroke="none" font-family="Arial" font-size="13px" font-style="normal" font-weight="normal" text-decoration="none" x="580.2958984375" y="370.5">Browse</text></g></g><g transform="translate(-350,-150) scale(1,1)"><path fill="none" stroke="#000000" d="M 416 324 L 416 464 M 416 464 A 8 8 0 0 0 424 472 L 448 472" stroke-miterlimit="10"/></g><g transform="translate(-350,-150) scale(1,1)"><path fill="none" stroke="#000000" d="M 437.83732514237585 476.209517756016 L 448 472 L 437.83732514237585 467.790482243984" stroke-miterlimit="10"/></g><g transform="translate(-350,-150) scale(1,1)"><g><path fill="none" stroke="none"/><text fill="#000000" stroke="none" font-family="Arial" font-size="13px" font-style="normal" font-weight="normal" text-decoration="none" x="424.2958984375" y="393.5">Add Item</text></g></g><g transform="translate(-350,-150) scale(1,1)"><path fill="none" stroke="#000000" d="M 760 321 L 760 400" stroke-miterlimit="10"/></g><g transform="translate(-350,-150) scale(1,1)"><path fill="none" stroke="#000000" d="M 848 530 L 848 592 M 848 592 A 8 8 0 0 0 856 600 L 920 600" stroke-miterlimit="10"/></g><g transform="translate(-350,-150) scale(1,1)"><path fill="none" stroke="#000000" d="M 909.8373251423759 604.209517756016 L 920 600 L 909.8373251423758 595.790482243984" stroke-miterlimit="10"/></g><g transform="translate(-350,-150) scale(1,1)"><g><path fill="none" stroke="none"/><text fill="#000000" stroke="none" font-family="Arial" font-size="13px" font-style="normal" font-weight="normal" text-decoration="none" x="870.2958984375" y="569.5">Creates</text></g></g><g transform="translate(-350,-150) scale(1,1)"><path fill="none" stroke="#000000" d="M 952 704 L 952 632" stroke-miterlimit="10"/></g><g transform="translate(-350,-150) scale(1,1)"><path fill="#FFFFFF" stroke="none" d="M 956.209517756016 642.1626748576241 L 952 632 L 947.790482243984 642.1626748576241 L 952 654"/></g><g transform="translate(-350,-150) scale(1,1)"><path fill="none" stroke="#000000" d="M 956.209517756016 642.1626748576241 L 952 632 L 947.790482243984 642.1626748576241 L 952 654 L 956.209517756016 642.1626748576241" stroke-miterlimit="10"/></g><g transform="translate(-350,-150) scale(1,1)"><path fill="none" stroke="#000000" d="M 808 760 L 808 530" stroke-miterlimit="10"/></g><g transform="translate(-350,-150) scale(1,1)"><path fill="#FFFFFF" stroke="none" d="M 812.209517756016 540.1626748576241 L 808 530 L 803.790482243984 540.1626748576241 L 808 552"/></g><g transform="translate(-350,-150) scale(1,1)"><path fill="none" stroke="#000000" d="M 812.209517756016 540.1626748576241 L 808 530 L 803.790482243984 540.1626748576241 L 808 552 L 812.209517756016 540.1626748576241" stroke-miterlimit="10"/></g><g transform="translate(-350,-150) scale(1,1)"><g><path fill="none" stroke="none"/><text fill="#000000" stroke="none" font-family="Arial" font-size="13px" font-style="normal" font-weight="normal" text-decoration="none" x="782.2958984375" y="740.5">0..1</text></g></g><g transform="translate(-350,-150) scale(1,1)"><path fill="none" stroke="#000000" d="M 416 280 L 416 208 M 416 208 A 8 8 0 0 1 424 200 L 520 200" stroke-miterlimit="10"/></g><g transform="translate(-350,-150) scale(1,1)"><path fill="#FFFFFF" stroke="none" d="M 499.6746502847517 208.41903551203197 L 520 200 L 499.6746502847517 191.58096448796803"/></g><g transform="translate(-350,-150) scale(1,1)"><path fill="none" stroke="#000000" d="M 499.6746502847517 208.41903551203197 L 520 200 L 499.6746502847517 191.58096448796803 L 499.6746502847517 208.41903551203197" stroke-miterlimit="10"/></g><g transform="translate(-350,-150) scale(1,1)"><path fill="none" stroke="#000000" d="M 752 264 L 752 208 M 752 208 A 8 8 0 0 0 744 200 L 639 200" stroke-miterlimit="10"/></g><g transform="translate(-350,-150) scale(1,1)"><path fill="#FFFFFF" stroke="none" d="M 659.3253497152483 191.58096448796803 L 639 200 L 659.3253497152483 208.41903551203197"/></g><g transform="translate(-350,-150) scale(1,1)"><path fill="none" stroke="#000000" d="M 659.3253497152483 191.58096448796803 L 639 200 L 659.3253497152483 208.41903551203197 L 659.3253497152483 191.58096448796803" stroke-miterlimit="10"/></g><g transform="translate(-350,-150) scale(1,1)"><path fill="none" stroke="#000000" d="M 551 720 L 551 693" stroke-miterlimit="10"/></g><g transform="translate(-350,-150) scale(1,1)"><path fill="#FFFFFF" stroke="none" d="M 559.419035512032 713.3253497152483 L 551 693 L 542.580964487968 713.3253497152483"/></g><g transform="translate(-350,-150) scale(1,1)"><path fill="none" stroke="#000000" d="M 559.419035512032 713.3253497152483 L 551 693 L 542.580964487968 713.3253497152483 L 559.419035512032 713.3253497152483" stroke-miterlimit="10"/></g><g transform="translate(-350,-150) scale(1,1)"><path fill="none" stroke="#000000" d="M 560 576 L 560 518" stroke-miterlimit="10"/></g><g transform="translate(-350,-150) scale(1,1)"><path fill="#FFFFFF" stroke="none" d="M 564.209517756016 528.1626748576241 L 560 518 L 555.790482243984 528.1626748576241 L 560 540"/></g><g transform="translate(-350,-150) scale(1,1)"><path fill="none" stroke="#000000" d="M 564.209517756016 528.1626748576241 L 560 518 L 555.790482243984 528.1626748576241 L 560 540 L 564.209517756016 528.1626748576241" stroke-miterlimit="10"/></g><g transform="translate(-350,-150) scale(1,1)"><g><path fill="none" stroke="none"/><text fill="#000000" stroke="none" font-family="Arial" font-size="13px" font-style="normal" font-weight="normal" text-decoration="none" x="535.5" y="571.5">0..*</text></g></g><g transform="translate(-350,-150) scale(1,1)"><path fill="none" stroke="#000000" d="M 614 648 L 760 648 M 760 648 A 8 8 0 0 0 768 640 L 768 530" stroke-miterlimit="10"/></g><g transform="translate(-350,-150) scale(1,1)"><path fill="#FFFFFF" stroke="none" d="M 772.209517756016 540.1626748576241 L 768 530 L 763.790482243984 540.1626748576241 L 768 552"/></g><g transform="translate(-350,-150) scale(1,1)"><path fill="none" stroke="#000000" d="M 772.209517756016 540.1626748576241 L 768 530 L 763.790482243984 540.1626748576241 L 768 552 L 772.209517756016 540.1626748576241" stroke-miterlimit="10"/></g><g transform="translate(-350,-150) scale(1,1)"><g><path fill="none" stroke="none"/><text fill="#000000" stroke="none" font-family="Arial" font-size="13px" font-style="normal" font-weight="normal" text-decoration="none" x="629.2958984375" y="639.5">0..*</text></g></g><g transform="translate(-350,-150) scale(1,1)"><g><path fill="none" stroke="none"/><text fill="#000000" stroke="none" font-family="Arial" font-size="13px" font-style="normal" font-weight="normal" text-decoration="none" x="743.2958984375" y="561.5">0..*</text></g></g><g transform="translate(-350,-150) scale(1,1)"><path fill="none" stroke="#000000" d="M 400 324 L 400 682 M 400 682 A 8 8 0 0 0 408 690 L 488 690" stroke-miterlimit="10"/></g><g transform="translate(-350,-150) scale(1,1)"><path fill="none" stroke="#000000" d="M 477.83732514237585 694.209517756016 L 488 690 L 477.83732514237585 685.790482243984" stroke-miterlimit="10"/></g><g transform="translate(-350,-150) scale(1,1)"><g><path fill="none" stroke="none"/><text fill="#000000" stroke="none" font-family="Arial" font-size="13px" font-style="normal" font-weight="normal" text-decoration="none" x="403.2958984375" y="588.5">Modifies</text></g></g><g transform="translate(-350,-150) scale(1,1)"><path fill="none" stroke="#000000" d="M 384 324 L 384 816 M 384 816 A 8 8 0 0 0 392 824 L 752 824" stroke-miterlimit="10"/></g><g transform="translate(-350,-150) scale(1,1)"><path fill="none" stroke="#000000" d="M 741.8373251423759 828.209517756016 L 752 824 L 741.8373251423758 819.790482243984" stroke-miterlimit="10"/></g><g transform="translate(-350,-150) scale(1,1)"><g><path fill="none" stroke="none"/><text fill="#000000" stroke="none" font-family="Arial" font-size="13px" font-style="normal" font-weight="normal" text-decoration="none" x="395.2958984375" y="776.5">Creates</text></g></g><g transform="translate(-350,-150) scale(1,1)"><path fill="none" stroke="#000000" d="M 368 324 L 368 880 M 368 880 A 8 8 0 0 0 376 888 L 934 888 M 934 888 A 8 8 0 0 0 942 880 L 942 748" stroke-miterlimit="10"/></g><g transform="translate(-350,-150) scale(1,1)"><path fill="none" stroke="#000000" d="M 946.209517756016 758.1626748576241 L 942 748 L 937.790482243984 758.1626748576241" stroke-miterlimit="10"/></g><g transform="translate(-350,-150) scale(1,1)"><g><path fill="none" stroke="none"/><text fill="#000000" stroke="none" font-family="Arial" font-size="13px" font-style="normal" font-weight="normal" text-decoration="none" x="954.2958984375" y="804.5">Browse</text></g></g><g transform="translate(-350,-150) scale(1,1)"><path fill="none" stroke="#000000" d="M 736 466 L 607 466" stroke-miterlimit="10"/></g><g transform="translate(-350,-150) scale(1,1)"><path fill="none" stroke="#000000" d="M 617.1626748576241 461.790482243984 L 607 466 L 617.1626748576241 470.209517756016" stroke-miterlimit="10"/></g><g transform="translate(-350,-150) scale(1,1)"><g><path fill="none" stroke="none"/><text fill="#000000" stroke="none" font-family="Arial" font-size="13px" font-style="normal" font-weight="normal" text-decoration="none" x="628.5" y="487.5">Purchase Item</text></g></g><g transform="translate(-350,-150) scale(1,1)"><g><path fill="none" stroke="none"/><text fill="#000000" stroke="none" font-family="Arial" font-size="13px" font-style="normal" font-weight="normal" text-decoration="none" x="711.5" y="459.5">0..*</text></g></g></g></svg>