<svg version="1.1" xmlns="http://www.w3.org/2000/svg" xmlns:xlink="http://www.w3.org/1999/xlink" width="728.63720703125" height="813"><defs/><g><g transform="translate(-118,-38) scale(1,1)"><rect fill="#C0C0C0" stroke="none" x="319" y="55" width="138.33349609375" height="175" opacity="0.2"/></g><g transform="translate(-118,-38) scale(1,1)"><rect fill="#ffffff" stroke="none" x="312" y="48" width="138.33349609375" height="175"/></g><g transform="translate(-118,-38) scale(1,1)"><path fill="none" stroke="#000000" d="M 312 48 L 450.33349609375 48 L 450.33349609375 223 L 312 223 L 312 48 Z Z" stroke-miterlimit="10"/></g><g transform="translate(-118,-38) scale(1,1)"><path fill="none" stroke="#000000" d="M 312 73 L 450.33349609375 73" stroke-miterlimit="10"/></g><g transform="translate(-118,-38) scale(1,1)"><path fill="none" stroke="#000000" d="M 312 186 L 450.33349609375 186" stroke-miterlimit="10"/></g><g transform="translate(-118,-38) scale(1,1)"><g><path fill="none" stroke="none"/><text fill="#000000" stroke="none" font-family="Arial" font-size="13px" font-style="normal" font-weight="bold" text-decoration="none" x="367.443115234375" y="67.5">User</text></g></g><g transform="translate(-118,-38) scale(1,1)"><g><path fill="none" stroke="none"/><text fill="#000000" stroke="none" font-family="Arial" font-size="13px" font-style="normal" font-weight="normal" text-decoration="none" x="317" y="90.5">-Username: String</text></g></g><g transform="translate(-118,-38) scale(1,1)"><g><path fill="none" stroke="none"/><text fill="#000000" stroke="none" font-family="Arial" font-size="13px" font-style="normal" font-weight="normal" text-decoration="none" x="317" y="105.5">-Password: String</text></g></g><g transform="translate(-118,-38) scale(1,1)"><g><path fill="none" stroke="none"/><text fill="#000000" stroke="none" font-family="Arial" font-size="13px" font-style="normal" font-weight="normal" text-decoration="none" x="317" y="120.5">-Email: String</text></g></g><g transform="translate(-118,-38) scale(1,1)"><g><path fill="none" stroke="none"/><text fill="#000000" stroke="none" font-family="Arial" font-size="13px" font-style="normal" font-weight="normal" text-decoration="none" x="317" y="135.5">-LastActivity: Time</text></g></g><g transform="translate(-118,-38) scale(1,1)"><g><path fill="none" stroke="none"/><text fill="#000000" stroke="none" font-family="Arial" font-size="13px" font-style="normal" font-weight="normal" text-decoration="none" x="317" y="150.5">-PostalAddress: String</text></g></g><g transform="translate(-118,-38) scale(1,1)"><g><path fill="none" stroke="none"/><text fill="#000000" stroke="none" font-family="Arial" font-size="13px" font-style="normal" font-weight="normal" text-decoration="none" x="317" y="165.5">-Name: String</text></g></g><g transform="translate(-118,-38) scale(1,1)"><g><path fill="none" stroke="none"/><text fill="#000000" stroke="none" font-family="Arial" font-size="13px" font-style="normal" font-weight="normal" text-decoration="none" x="317" y="180.5">-LoggedIn: boolean</text></g></g><g transform="translate(-118,-38) scale(1,1)"><g><path fill="none" stroke="none"/><text fill="#000000" stroke="none" font-family="Arial" font-size="13px" font-style="normal" font-weight="normal" text-decoration="none" x="317" y="203.5">+Login(): boolean</text></g></g><g transform="translate(-118,-38) scale(1,1)"><g><path fill="none" stroke="none"/><text fill="#000000" stroke="none" font-family="Arial" font-size="13px" font-style="normal" font-weight="normal" text-decoration="none" x="317" y="218.5">+Logout(): boolean</text></g></g><g transform="translate(-118,-38) scale(1,1)"><rect fill="#C0C0C0" stroke="none" x="135" y="175" width="120" height="44" opacity="0.2"/></g><g transform="translate(-118,-38) scale(1,1)"><rect fill="#ffffff" stroke="none" x="128" y="168" width="120" height="44"/></g><g transform="translate(-118,-38) scale(1,1)"><path fill="none" stroke="#000000" d="M 128 168 L 248 168 L 248 212 L 128 212 L 128 168 Z Z" stroke-miterlimit="10"/></g><g transform="translate(-118,-38) scale(1,1)"><path fill="none" stroke="#000000" d="M 128 193 L 248 193" stroke-miterlimit="10"/></g><g transform="translate(-118,-38) scale(1,1)"><path fill="none" stroke="#000000" d="M 128 203 L 248 203" stroke-miterlimit="10"/></g><g transform="translate(-118,-38) scale(1,1)"><g><path fill="none" stroke="none"/><text fill="#000000" stroke="none" font-family="Arial" font-size="13px" font-style="normal" font-weight="bold" text-decoration="none" x="162.345947265625" y="187.5">Manager</text></g></g><g transform="translate(-118,-38) scale(1,1)"><rect fill="#C0C0C0" stroke="none" x="519" y="167" width="124.60986328125" height="57" opacity="0.2"/></g><g transform="translate(-118,-38) scale(1,1)"><rect fill="#ffffff" stroke="none" x="512" y="160" width="124.60986328125" height="57"/></g><g transform="translate(-118,-38) scale(1,1)"><path fill="none" stroke="#000000" d="M 512 160 L 636.60986328125 160 L 636.60986328125 217 L 512 217 L 512 160 Z Z" stroke-miterlimit="10"/></g><g transform="translate(-118,-38) scale(1,1)"><path fill="none" stroke="#000000" d="M 512 185 L 636.60986328125 185" stroke-miterlimit="10"/></g><g transform="translate(-118,-38) scale(1,1)"><path fill="none" stroke="#000000" d="M 512 208 L 636.60986328125 208" stroke-miterlimit="10"/></g><g transform="translate(-118,-38) scale(1,1)"><g><path fill="none" stroke="none"/><text fill="#000000" stroke="none" font-family="Arial" font-size="13px" font-style="normal" font-weight="bold" text-decoration="none" x="546.130859375" y="179.5">Customer</text></g></g><g transform="translate(-118,-38) scale(1,1)"><g><path fill="none" stroke="none"/><text fill="#000000" stroke="none" font-family="Arial" font-size="13px" font-style="normal" font-weight="normal" text-decoration="none" x="517" y="202.5">-Ismember: boolean</text></g></g><g transform="translate(-118,-38) scale(1,1)"><rect fill="#C0C0C0" stroke="none" x="239" y="327" width="158.9443359375" height="102" opacity="0.2"/></g><g transform="translate(-118,-38) scale(1,1)"><rect fill="#ffffff" stroke="none" x="232" y="320" width="158.9443359375" height="102"/></g><g transform="translate(-118,-38) scale(1,1)"><path fill="none" stroke="#000000" d="M 232 320 L 390.9443359375 320 L 390.9443359375 422 L 232 422 L 232 320 Z Z" stroke-miterlimit="10"/></g><g transform="translate(-118,-38) scale(1,1)"><path fill="none" stroke="#000000" d="M 232 345 L 390.9443359375 345" stroke-miterlimit="10"/></g><g transform="translate(-118,-38) scale(1,1)"><path fill="none" stroke="#000000" d="M 232 355 L 390.9443359375 355" stroke-miterlimit="10"/></g><g transform="translate(-118,-38) scale(1,1)"><g><path fill="none" stroke="none"/><text fill="#000000" stroke="none" font-family="Arial" font-size="13px" font-style="normal" font-weight="bold" text-decoration="none" x="284.73583984375" y="339.5">Inventory</text></g></g><g transform="translate(-118,-38) scale(1,1)"><g><path fill="none" stroke="none"/><text fill="#000000" stroke="none" font-family="Arial" font-size="13px" font-style="normal" font-weight="normal" text-decoration="none" x="237" y="372.5">+PurchaseItem(): boolean</text></g></g><g transform="translate(-118,-38) scale(1,1)"><g><path fill="none" stroke="none"/><text fill="#000000" stroke="none" font-family="Arial" font-size="13px" font-style="normal" font-weight="normal" text-decoration="none" x="237" y="387.5">+AddItem(): void</text></g></g><g transform="translate(-118,-38) scale(1,1)"><g><path fill="none" stroke="none"/><text fill="#000000" stroke="none" font-family="Arial" font-size="13px" font-style="normal" font-weight="normal" text-decoration="none" x="237" y="402.5">+Reorder(): void</text></g></g><g transform="translate(-118,-38) scale(1,1)"><g><path fill="none" stroke="none"/><text fill="#000000" stroke="none" font-family="Arial" font-size="13px" font-style="normal" font-weight="normal" text-decoration="none" x="237" y="417.5">+Email(): void</text></g></g><g transform="translate(-118,-38) scale(1,1)"><rect fill="#C0C0C0" stroke="none" x="551" y="319" width="163.66064453125" height="130" opacity="0.2"/></g><g transform="translate(-118,-38) scale(1,1)"><rect fill="#ffffff" stroke="none" x="544" y="312" width="163.66064453125" height="130"/></g><g transform="translate(-118,-38) scale(1,1)"><path fill="none" stroke="#000000" d="M 544 312 L 707.66064453125 312 L 707.66064453125 442 L 544 442 L 544 312 Z Z" stroke-miterlimit="10"/></g><g transform="translate(-118,-38) scale(1,1)"><path fill="none" stroke="#000000" d="M 544 337 L 707.66064453125 337" stroke-miterlimit="10"/></g><g transform="translate(-118,-38) scale(1,1)"><path fill="none" stroke="#000000" d="M 544 360 L 707.66064453125 360" stroke-miterlimit="10"/></g><g transform="translate(-118,-38) scale(1,1)"><g><path fill="none" stroke="none"/><text fill="#000000" stroke="none" font-family="Arial" font-size="13px" font-style="normal" font-weight="bold" text-decoration="none" x="584.275390625" y="331.5">Shopping Cart</text></g></g><g transform="translate(-118,-38) scale(1,1)"><g><path fill="none" stroke="none"/><text fill="#000000" stroke="none" font-family="Arial" font-size="13px" font-style="normal" font-weight="normal" text-decoration="none" x="549" y="354.5">-PromotionAdded: boolean</text></g></g><g transform="translate(-118,-38) scale(1,1)"><g><path fill="none" stroke="none"/><text fill="#000000" stroke="none" font-family="Arial" font-size="13px" font-style="normal" font-weight="normal" text-decoration="none" x="549" y="377.5">+AddPromotion(): boolean</text></g></g><g transform="translate(-118,-38) scale(1,1)"><g><path fill="none" stroke="none"/><text fill="#000000" stroke="none" font-family="Arial" font-size="13px" font-style="normal" font-weight="normal" text-decoration="none" x="549" y="392.5">+Checkout(): void</text></g></g><g transform="translate(-118,-38) scale(1,1)"><g><path fill="none" stroke="none"/><text fill="#000000" stroke="none" font-family="Arial" font-size="13px" font-style="normal" font-weight="normal" text-decoration="none" x="549" y="407.5">+AddItem(): void</text></g></g><g transform="translate(-118,-38) scale(1,1)"><g><path fill="none" stroke="none"/><text fill="#000000" stroke="none" font-family="Arial" font-size="13px" font-style="normal" font-weight="normal" text-decoration="none" x="549" y="422.5">+RemoveItem(): void</text></g></g><g transform="translate(-118,-38) scale(1,1)"><g><path fill="none" stroke="none"/><text fill="#000000" stroke="none" font-family="Arial" font-size="13px" font-style="normal" font-weight="normal" text-decoration="none" x="549" y="437.5">+Email(): void</text></g></g><g transform="translate(-118,-38) scale(1,1)"><rect fill="#C0C0C0" stroke="none" x="287" y="495" width="129.3134765625" height="117" opacity="0.2"/></g><g transform="translate(-118,-38) scale(1,1)"><rect fill="#ffffff" stroke="none" x="280" y="488" width="129.3134765625" height="117"/></g><g transform="translate(-118,-38) scale(1,1)"><path fill="none" stroke="#000000" d="M 280 488 L 409.3134765625 488 L 409.3134765625 605 L 280 605 L 280 488 Z Z" stroke-miterlimit="10"/></g><g transform="translate(-118,-38) scale(1,1)"><path fill="none" stroke="#000000" d="M 280 513 L 409.3134765625 513" stroke-miterlimit="10"/></g><g transform="translate(-118,-38) scale(1,1)"><path fill="none" stroke="#000000" d="M 280 596 L 409.3134765625 596" stroke-miterlimit="10"/></g><g transform="translate(-118,-38) scale(1,1)"><g><path fill="none" stroke="none"/><text fill="#000000" stroke="none" font-family="Arial" font-size="13px" font-style="normal" font-weight="bold" text-decoration="none" x="332.015380859375" y="507.5">Item</text></g></g><g transform="translate(-118,-38) scale(1,1)"><g><path fill="none" stroke="none"/><text fill="#000000" stroke="none" font-family="Arial" font-size="13px" font-style="normal" font-weight="normal" text-decoration="none" x="285" y="530.5">-Barcode: int</text></g></g><g transform="translate(-118,-38) scale(1,1)"><g><path fill="none" stroke="none"/><text fill="#000000" stroke="none" font-family="Arial" font-size="13px" font-style="normal" font-weight="normal" text-decoration="none" x="285" y="545.5">-Price: double</text></g></g><g transform="translate(-118,-38) scale(1,1)"><g><path fill="none" stroke="none"/><text fill="#000000" stroke="none" font-family="Arial" font-size="13px" font-style="normal" font-weight="normal" text-decoration="none" x="285" y="560.5">-Reorder: boolean</text></g></g><g transform="translate(-118,-38) scale(1,1)"><g><path fill="none" stroke="none"/><text fill="#000000" stroke="none" font-family="Arial" font-size="13px" font-style="normal" font-weight="normal" text-decoration="none" x="285" y="575.5">+ReorderAmount: int</text></g></g><g transform="translate(-118,-38) scale(1,1)"><g><path fill="none" stroke="none"/><text fill="#000000" stroke="none" font-family="Arial" font-size="13px" font-style="normal" font-weight="normal" text-decoration="none" x="285" y="590.5">+Stock: int</text></g></g><g transform="translate(-118,-38) scale(1,1)"><rect fill="#C0C0C0" stroke="none" x="303" y="663" width="119.5380859375" height="72" opacity="0.2"/></g><g transform="translate(-118,-38) scale(1,1)"><rect fill="#ffffff" stroke="none" x="296" y="656" width="119.5380859375" height="72"/></g><g transform="translate(-118,-38) scale(1,1)"><path fill="none" stroke="#000000" d="M 296 656 L 415.5380859375 656 L 415.5380859375 728 L 296 728 L 296 656 Z Z" stroke-miterlimit="10"/></g><g transform="translate(-118,-38) scale(1,1)"><path fill="none" stroke="#000000" d="M 296 681 L 415.5380859375 681" stroke-miterlimit="10"/></g><g transform="translate(-118,-38) scale(1,1)"><path fill="none" stroke="#000000" d="M 296 719 L 415.5380859375 719" stroke-miterlimit="10"/></g><g transform="translate(-118,-38) scale(1,1)"><g><path fill="none" stroke="none"/><text fill="#000000" stroke="none" font-family="Arial" font-size="13px" font-style="normal" font-weight="bold" text-decoration="none" x="333.3681640625" y="675.5">Product</text></g></g><g transform="translate(-118,-38) scale(1,1)"><g><path fill="none" stroke="none"/><text fill="#000000" stroke="none" font-family="Arial" font-size="13px" font-style="normal" font-weight="normal" text-decoration="none" x="301" y="698.5">-Name: String</text></g></g><g transform="translate(-118,-38) scale(1,1)"><g><path fill="none" stroke="none"/><text fill="#000000" stroke="none" font-family="Arial" font-size="13px" font-style="normal" font-weight="normal" text-decoration="none" x="301" y="713.5">-Description: String</text></g></g><g transform="translate(-118,-38) scale(1,1)"><rect fill="#C0C0C0" stroke="none" x="727" y="479" width="116.63720703125" height="72" opacity="0.2"/></g><g transform="translate(-118,-38) scale(1,1)"><rect fill="#ffffff" stroke="none" x="720" y="472" width="116.63720703125" height="72"/></g><g transform="translate(-118,-38) scale(1,1)"><path fill="none" stroke="#000000" d="M 720 472 L 836.63720703125 472 L 836.63720703125 544 L 720 544 L 720 472 Z Z" stroke-miterlimit="10"/></g><g transform="translate(-118,-38) scale(1,1)"><path fill="none" stroke="#000000" d="M 720 497 L 836.63720703125 497" stroke-miterlimit="10"/></g><g transform="translate(-118,-38) scale(1,1)"><path fill="none" stroke="#000000" d="M 720 535 L 836.63720703125 535" stroke-miterlimit="10"/></g><g transform="translate(-118,-38) scale(1,1)"><g><path fill="none" stroke="none"/><text fill="#000000" stroke="none" font-family="Arial" font-size="13px" font-style="normal" font-weight="bold" text-decoration="none" x="744.599853515625" y="491.5">Transaction</text></g></g><g transform="translate(-118,-38) scale(1,1)"><g><path fill="none" stroke="none"/><text fill="#000000" stroke="none" font-family="Arial" font-size="13px" font-style="normal" font-weight="normal" text-decoration="none" x="725" y="514.5">-TimeDate: Time</text></g></g><g transform="translate(-118,-38) scale(1,1)"><g><path fill="none" stroke="none"/><text fill="#000000" stroke="none" font-family="Arial" font-size="13px" font-style="normal" font-weight="normal" text-decoration="none" x="725" y="529.5">-UserName: String</text></g></g><g transform="translate(-118,-38) scale(1,1)"><rect fill="#C0C0C0" stroke="none" x="687" y="615" width="109.40087890625" height="44" opacity="0.2"/></g><g transform="translate(-118,-38) scale(1,1)"><rect fill="#ffffff" stroke="none" x="680" y="608" width="109.40087890625" height="44"/></g><g transform="translate(-118,-38) scale(1,1)"><path fill="none" stroke="#000000" d="M 680 608 L 789.40087890625 608 L 789.40087890625 652 L 680 652 L 680 608 Z Z" stroke-miterlimit="10"/></g><g transform="translate(-118,-38) scale(1,1)"><path fill="none" stroke="#000000" d="M 680 633 L 789.40087890625 633" stroke-miterlimit="10"/></g><g transform="translate(-118,-38) scale(1,1)"><path fill="none" stroke="#000000" d="M 680 643 L 789.40087890625 643" stroke-miterlimit="10"/></g><g transform="translate(-118,-38) scale(1,1)"><g><path fill="none" stroke="none"/><text fill="#000000" stroke="none" font-family="Arial" font-size="13px" font-style="normal" font-weight="bold" text-decoration="none" x="688.330810546875" y="627.5">Transaction Log</text></g></g><g transform="translate(-118,-38) scale(1,1)"><rect fill="#C0C0C0" stroke="none" x="559" y="695" width="105.82080078125" height="100" opacity="0.2"/></g><g transform="translate(-118,-38) scale(1,1)"><rect fill="#ffffff" stroke="none" x="552" y="688" width="105.82080078125" height="100"/></g><g transform="translate(-118,-38) scale(1,1)"><path fill="none" stroke="#000000" d="M 552 688 L 657.82080078125 688 L 657.82080078125 788 L 552 788 L 552 688 Z Z" stroke-miterlimit="10"/></g><g transform="translate(-118,-38) scale(1,1)"><path fill="none" stroke="#000000" d="M 552 713 L 657.82080078125 713" stroke-miterlimit="10"/></g><g transform="translate(-118,-38) scale(1,1)"><path fill="none" stroke="#000000" d="M 552 766 L 657.82080078125 766" stroke-miterlimit="10"/></g><g transform="translate(-118,-38) scale(1,1)"><g><path fill="none" stroke="none"/><text fill="#000000" stroke="none" font-family="Arial" font-size="13px" font-style="normal" font-weight="bold" text-decoration="none" x="575.285888671875" y="707.5">Promotion</text></g></g><g transform="translate(-118,-38) scale(1,1)"><g><path fill="none" stroke="none"/><text fill="#000000" stroke="none" font-family="Arial" font-size="13px" font-style="normal" font-weight="normal" text-decoration="none" x="557" y="730.5">-Code: String</text></g></g><g transform="translate(-118,-38) scale(1,1)"><g><path fill="none" stroke="none"/><text fill="#000000" stroke="none" font-family="Arial" font-size="13px" font-style="normal" font-weight="normal" text-decoration="none" x="557" y="745.5">-Percentage: int</text></g></g><g transform="translate(-118,-38) scale(1,1)"><g><path fill="none" stroke="none"/><text fill="#000000" stroke="none" font-family="Arial" font-size="13px" font-style="normal" font-weight="normal" text-decoration="none" x="557" y="760.5">-Expiration: Date</text></g></g><g transform="translate(-118,-38) scale(1,1)"><g><path fill="none" stroke="none"/><text fill="#000000" stroke="none" font-family="Arial" font-size="13px" font-style="normal" font-weight="normal" text-decoration="none" x="557" y="783.5">+Email(): void</text></g></g><g transform="translate(-118,-38) scale(1,1)"><path fill="none" stroke="#000000" d="M 184 168 L 184 96 M 184 96 A 8 8 0 0 1 192 88 L 312 88" stroke-miterlimit="10"/></g><g transform="translate(-118,-38) scale(1,1)"><path fill="#FFFFFF" stroke="none" d="M 291.6746502847517 96.41903551203198 L 312 88 L 291.6746502847517 79.58096448796803"/></g><g transform="translate(-118,-38) scale(1,1)"><path fill="none" stroke="#000000" d="M 291.6746502847517 96.41903551203198 L 312 88 L 291.6746502847517 79.58096448796803 L 291.6746502847517 96.41903551203198" stroke-miterlimit="10"/></g><g transform="translate(-118,-38) scale(1,1)"><path fill="none" stroke="#000000" d="M 560 160 L 560 96 M 560 96 A 8 8 0 0 0 552 88 L 450 88" stroke-miterlimit="10"/></g><g transform="translate(-118,-38) scale(1,1)"><path fill="#FFFFFF" stroke="none" d="M 470.3253497152483 79.58096448796803 L 450 88 L 470.3253497152483 96.41903551203197"/></g><g transform="translate(-118,-38) scale(1,1)"><path fill="none" stroke="#000000" d="M 470.3253497152483 79.58096448796803 L 450 88 L 470.3253497152483 96.41903551203197 L 470.3253497152483 79.58096448796803" stroke-miterlimit="10"/></g><g transform="translate(-118,-38) scale(1,1)"><path fill="none" stroke="#000000" d="M 355 223 L 355 320" stroke-miterlimit="10"/></g><g transform="translate(-118,-38) scale(1,1)"><path fill="none" stroke="#000000" d="M 350.790482243984 309.83732514237585 L 355 320 L 359.209517756016 309.83732514237585" stroke-miterlimit="10"/></g><g transform="translate(-118,-38) scale(1,1)"><g><path fill="none" stroke="none"/><text fill="#000000" stroke="none" font-family="Arial" font-size="13px" font-style="normal" font-weight="normal" text-decoration="none" x="362.2958984375" y="252.5">Browse</text></g></g><g transform="translate(-118,-38) scale(1,1)"><path fill="none" stroke="#000000" d="M 568 217 L 568 312" stroke-miterlimit="10"/></g><g transform="translate(-118,-38) scale(1,1)"><path fill="none" stroke="#000000" d="M 544 380 L 391 380" stroke-miterlimit="10"/></g><g transform="translate(-118,-38) scale(1,1)"><path fill="none" stroke="#000000" d="M 401.16267485762415 375.790482243984 L 391 380 L 401.16267485762415 384.209517756016" stroke-miterlimit="10"/></g><g transform="translate(-118,-38) scale(1,1)"><g><path fill="none" stroke="none"/><text fill="#000000" stroke="none" font-family="Arial" font-size="13px" font-style="normal" font-weight="normal" text-decoration="none" x="424.2958984375" y="401.5">Purchase Item</text></g></g><g transform="translate(-118,-38) scale(1,1)"><g><path fill="none" stroke="none"/><text fill="#000000" stroke="none" font-family="Arial" font-size="13px" font-style="normal" font-weight="normal" text-decoration="none" x="519.5" y="373.5">*</text></g></g><g transform="translate(-118,-38) scale(1,1)"><path fill="none" stroke="#000000" d="M 200 212 L 200 363 M 200 363 A 8 8 0 0 0 208 371 L 232 371" stroke-miterlimit="10"/></g><g transform="translate(-118,-38) scale(1,1)"><path fill="none" stroke="#000000" d="M 221.83732514237585 375.209517756016 L 232 371 L 221.83732514237585 366.790482243984" stroke-miterlimit="10"/></g><g transform="translate(-118,-38) scale(1,1)"><g><path fill="none" stroke="none"/><text fill="#000000" stroke="none" font-family="Arial" font-size="13px" font-style="normal" font-weight="normal" text-decoration="none" x="211.2958984375" y="292.5">Add Item</text></g></g><g transform="translate(-118,-38) scale(1,1)"><path fill="none" stroke="#000000" d="M 344 488 L 344 422" stroke-miterlimit="10"/></g><g transform="translate(-118,-38) scale(1,1)"><path fill="#FFFFFF" stroke="none" d="M 348.209517756016 432.16267485762415 L 344 422 L 339.790482243984 432.16267485762415 L 344 444"/></g><g transform="translate(-118,-38) scale(1,1)"><path fill="none" stroke="#000000" d="M 348.209517756016 432.16267485762415 L 344 422 L 339.790482243984 432.16267485762415 L 344 444 L 348.209517756016 432.16267485762415" stroke-miterlimit="10"/></g><g transform="translate(-118,-38) scale(1,1)"><g><path fill="none" stroke="none"/><text fill="#000000" stroke="none" font-family="Arial" font-size="13px" font-style="normal" font-weight="normal" text-decoration="none" x="353.5" y="472.5">*</text></g></g><g transform="translate(-118,-38) scale(1,1)"><path fill="none" stroke="#000000" d="M 409 568 L 552 568 M 552 568 A 8 8 0 0 0 560 560 L 560 442" stroke-miterlimit="10"/></g><g transform="translate(-118,-38) scale(1,1)"><path fill="#FFFFFF" stroke="none" d="M 564.209517756016 452.16267485762415 L 560 442 L 555.790482243984 452.16267485762415 L 560 464"/></g><g transform="translate(-118,-38) scale(1,1)"><path fill="none" stroke="#000000" d="M 564.209517756016 452.16267485762415 L 560 442 L 555.790482243984 452.16267485762415 L 560 464 L 564.209517756016 452.16267485762415" stroke-miterlimit="10"/></g><g transform="translate(-118,-38) scale(1,1)"><g><path fill="none" stroke="none"/><text fill="#000000" stroke="none" font-family="Arial" font-size="13px" font-style="normal" font-weight="normal" text-decoration="none" x="427.5" y="586.5">*</text></g></g><g transform="translate(-118,-38) scale(1,1)"><g><path fill="none" stroke="none"/><text fill="#000000" stroke="none" font-family="Arial" font-size="13px" font-style="normal" font-weight="normal" text-decoration="none" x="569.5" y="469.5">*</text></g></g><g transform="translate(-118,-38) scale(1,1)"><path fill="none" stroke="#000000" d="M 184 212 L 184 576 M 184 576 A 8 8 0 0 0 192 584 L 280 584" stroke-miterlimit="10"/></g><g transform="translate(-118,-38) scale(1,1)"><path fill="none" stroke="#000000" d="M 269.83732514237585 588.209517756016 L 280 584 L 269.83732514237585 579.790482243984" stroke-miterlimit="10"/></g><g transform="translate(-118,-38) scale(1,1)"><g><path fill="none" stroke="none"/><text fill="#000000" stroke="none" font-family="Arial" font-size="13px" font-style="normal" font-weight="normal" text-decoration="none" x="189.2958984375" y="522.5">Modifies</text></g></g><g transform="translate(-118,-38) scale(1,1)"><path fill="none" stroke="#000000" d="M 349 656 L 349 605" stroke-miterlimit="10"/></g><g transform="translate(-118,-38) scale(1,1)"><path fill="#FFFFFF" stroke="none" d="M 357.419035512032 625.3253497152483 L 349 605 L 340.580964487968 625.3253497152483"/></g><g transform="translate(-118,-38) scale(1,1)"><path fill="none" stroke="#000000" d="M 357.419035512032 625.3253497152483 L 349 605 L 340.580964487968 625.3253497152483 L 357.419035512032 625.3253497152483" stroke-miterlimit="10"/></g><g transform="translate(-118,-38) scale(1,1)"><path fill="none" stroke="#000000" d="M 621 688 L 621 442" stroke-miterlimit="10"/></g><g transform="translate(-118,-38) scale(1,1)"><path fill="#FFFFFF" stroke="none" d="M 625.209517756016 452.16267485762415 L 621 442 L 616.790482243984 452.16267485762415 L 621 464"/></g><g transform="translate(-118,-38) scale(1,1)"><path fill="none" stroke="#000000" d="M 625.209517756016 452.16267485762415 L 621 442 L 616.790482243984 452.16267485762415 L 621 464 L 625.209517756016 452.16267485762415" stroke-miterlimit="10"/></g><g transform="translate(-118,-38) scale(1,1)"><g><path fill="none" stroke="none"/><text fill="#000000" stroke="none" font-family="Arial" font-size="13px" font-style="normal" font-weight="normal" text-decoration="none" x="622.5" y="672.5">0..1</text></g></g><g transform="translate(-118,-38) scale(1,1)"><path fill="none" stroke="#000000" d="M 648 442 L 648 512 M 648 512 A 8 8 0 0 0 656 520 L 720 520" stroke-miterlimit="10"/></g><g transform="translate(-118,-38) scale(1,1)"><path fill="none" stroke="#000000" d="M 709.8373251423759 524.209517756016 L 720 520 L 709.8373251423758 515.790482243984" stroke-miterlimit="10"/></g><g transform="translate(-118,-38) scale(1,1)"><g><path fill="none" stroke="none"/><text fill="#000000" stroke="none" font-family="Arial" font-size="13px" font-style="normal" font-weight="normal" text-decoration="none" x="659.2958984375" y="492.5">Creates</text></g></g><g transform="translate(-118,-38) scale(1,1)"><path fill="none" stroke="#000000" d="M 765 608 L 765 544" stroke-miterlimit="10"/></g><g transform="translate(-118,-38) scale(1,1)"><path fill="#FFFFFF" stroke="none" d="M 769.209517756016 554.1626748576241 L 765 544 L 760.790482243984 554.1626748576241 L 765 566"/></g><g transform="translate(-118,-38) scale(1,1)"><path fill="none" stroke="#000000" d="M 769.209517756016 554.1626748576241 L 765 544 L 760.790482243984 554.1626748576241 L 765 566 L 769.209517756016 554.1626748576241" stroke-miterlimit="10"/></g><g transform="translate(-118,-38) scale(1,1)"><path fill="none" stroke="#000000" d="M 168 212 L 168 752 M 168 752 A 8 8 0 0 0 176 760 L 552 760" stroke-miterlimit="10"/></g><g transform="translate(-118,-38) scale(1,1)"><path fill="none" stroke="#000000" d="M 541.8373251423759 764.209517756016 L 552 760 L 541.8373251423758 755.790482243984" stroke-miterlimit="10"/></g><g transform="translate(-118,-38) scale(1,1)"><g><path fill="none" stroke="none"/><text fill="#000000" stroke="none" font-family="Arial" font-size="13px" font-style="normal" font-weight="normal" text-decoration="none" x="179.2958984375" y="748.5">Creates</text></g></g><g transform="translate(-118,-38) scale(1,1)"><path fill="none" stroke="#000000" d="M 152 212 L 152 832 M 152 832 A 8 8 0 0 0 160 840 L 720 840 M 720 840 A 8 8 0 0 0 728 832 L 728 652" stroke-miterlimit="10"/></g><g transform="translate(-118,-38) scale(1,1)"><path fill="none" stroke="#000000" d="M 732.209517756016 662.1626748576241 L 728 652 L 723.790482243984 662.1626748576241" stroke-miterlimit="10"/></g><g transform="translate(-118,-38) scale(1,1)"><g><path fill="none" stroke="none"/><text fill="#000000" stroke="none" font-family="Arial" font-size="13px" font-style="normal" font-weight="normal" text-decoration="none" x="738.2958984375" y="756.5">Browse</text></g></g></g></svg>